Coordinates
version=1
nRows=8
nColumns=55
inDegrees=yes

Units are S.I. units (second, meters, Newtons, ...)
If the header above contains a line with 'inDegrees', this indicates whether rotational values are in degrees (yes) or radians (no).

endheader
time	pelvis_tilt	pelvis_list	pelvis_rotation	pelvis_tx	pelvis_ty	pelvis_tz	hip_flexion_r	hip_adduction_r	hip_rotation_r	knee_angle_r	knee_angle_r_beta	ankle_angle_r	subtalar_angle_r	mtp_angle_r	hip_flexion_l	hip_adduction_l	hip_rotation_l	knee_angle_l	knee_angle_l_beta	ankle_angle_l	subtalar_angle_l	mtp_angle_l	lumbar_extension	lumbar_bending	lumbar_rotation	torso_tx	torso_ty	torso_tz	arm_flex_r	arm_add_r	arm_rot_r	shoulder_rx	shoulder_ry	shoulder_rz	elbow_flex_r	pro_sup_r	wrist_flex_r	wrist_dev_r	arm_flex_l	arm_add_l	arm_rot_l	shoulder_lx	shoulder_ly	shoulder_lz	elbow_flex_l	pro_sup_l	wrist_flex_l	wrist_dev_l	neck_extension	neck_bending	neck_rotation	head_tx	head_ty	head_tz
     18.64000000	      4.64385008	      0.86799783	     -2.52254668	      0.33854528	      0.95904429	     -0.14740178	     -4.52090814	     -9.12838543	    -13.09187516	      2.37080945	      0.04137843	      4.00349260	     15.78830756	      1.95961851	     -3.91201350	     -5.03337708	    -18.32286614	      2.19693157	      0.03834369	      1.08761236	     10.40429181	      2.88617890	     -2.46828074	     -2.88627889	      4.83483680	      0.07564759	      0.02018352	     -0.00521370	    -21.36898513	    -39.23655347	     52.90292533	     -0.03856230	     -0.03129467	     -0.01852893	     77.87084172	     39.83128550	     15.07462568	    -59.23829846	    -15.32378875	    -43.35944955	     52.05375445	     -0.02145429	     -0.03097452	      0.01424631	     87.28277412	     35.39684690	     15.13208298	    -44.18934999	     16.54858653	      0.64078758	     -1.55760841	      0.01193562	      0.01586601	      0.00169945
     18.65000000	      4.64385190	      0.87697352	     -2.52122928	      0.33884095	      0.95905384	     -0.14690024	     -4.52330958	     -9.12797442	    -13.09195134	      2.37008087	      0.04136571	      4.00300020	     15.78880858	      1.95976889	     -3.91314088	     -5.03353042	    -18.32246872	      2.19712933	      0.03834714	      1.08761716	     10.40450370	      2.88622568	     -2.46640409	     -2.87811022	      4.83628682	      0.07576915	      0.02017586	     -0.00487916	    -21.36727436	    -39.23742024	     52.90146534	     -0.03852044	     -0.03130058	     -0.01846489	     77.87112556	     39.83115911	     15.07466226	    -59.23813928	    -15.32216020	    -43.35814993	     52.05210823	     -0.02144016	     -0.03095713	      0.01432233	     87.28385266	     35.39685870	     15.13221144	    -44.18941564	     16.54864414	      0.64169249	     -1.55754080	      0.01195566	      0.01586323	      0.00178179
     18.66000000	      4.64418227	      0.89061115	     -2.51946634	      0.33920148	      0.95902935	     -0.14640601	     -4.52829146	     -9.12599892	    -13.09192099	      2.36992937	      0.04136307	      4.00243890	     15.78947346	      1.95992656	     -3.91578355	     -5.03475293	    -18.32208494	      2.19759624	      0.03835529	      1.08758972	     10.40456466	      2.88626824	     -2.46103285	     -2.86796416	      4.83860289	      0.07583162	      0.02014832	     -0.00454097	    -21.36455336	    -39.23786320	     52.89957743	     -0.03843775	     -0.03131501	     -0.01842738	     77.87170844	     39.83102128	     15.07470044	    -59.23798596	    -15.32023129	    -43.35696358	     52.05007794	     -0.02143071	     -0.03093085	      0.01439247	     87.28493826	     35.39684070	     15.13233947	    -44.18953193	     16.54908414	      0.64286304	     -1.55747503	      0.01193736	      0.01584860	      0.00189232
     18.67000000	      4.61025773	      0.93220664	     -2.49997068	      0.34074340	      0.95895214	     -0.14558738	     -4.67737615	     -9.10137247	    -13.09528508	      2.36355860	      0.04125188	      3.99316544	     15.80599590	      1.96329267	     -4.01443346	     -5.05198213	    -18.31570683	      2.21636048	      0.03868279	      1.08647604	     10.40569004	      2.88722552	     -2.29584012	     -2.81947714	      4.87401342	      0.07487514	      0.02012640	     -0.00511125	    -21.31972940	    -39.23759880	     52.86135163	     -0.03796928	     -0.03096386	     -0.01865665	     77.88982260	     39.82937232	     15.07582464	    -59.23396662	    -15.27766713	    -43.33936964	     51.99746170	     -0.02156629	     -0.03096714	      0.01473566	     87.30233683	     35.39541284	     15.13529757	    -44.19266407	     16.55875626	      0.65683728	     -1.55596082	      0.01180477	      0.01567789	      0.00261457
     18.68000000	      4.61340854	      0.94362690	     -2.49861350	      0.34105488	      0.95893494	     -0.14515195	     -4.67811817	     -9.10056519	    -13.09539038	      2.36209729	      0.04122637	      3.99320225	     15.80666231	      1.96338349	     -4.01459479	     -5.05303158	    -18.31547199	      2.21618394	      0.03867971	      1.08666661	     10.40572402	      2.88723830	     -2.29374653	     -2.81012796	      4.87563193	      0.07500649	      0.02012391	     -0.00474427	    -21.31815388	    -39.23827909	     52.85984368	     -0.03795188	     -0.03098462	     -0.01861517	     77.89007653	     39.82924921	     15.07585087	    -59.23383181	    -15.27656764	    -43.33795190	     51.99601681	     -0.02157198	     -0.03096842	      0.01480798	     87.30304336	     35.39540908	     15.13542008	    -44.19271947	     16.55902410	      0.65766339	     -1.55591300	      0.01181463	      0.01567526	      0.00267935
     18.69000000	      4.61753816	      0.95824376	     -2.49664482	      0.34142381	      0.95886076	     -0.14473950	     -4.68059403	     -9.09890813	    -13.09537075	      2.36103479	      0.04120783	      3.99316503	     15.80744577	      1.96348151	     -4.01646843	     -5.05503248	    -18.31516979	      2.21635693	      0.03868273	      1.08677074	     10.40567012	      2.88725663	     -2.28818548	     -2.79923572	      4.87797325	      0.07508046	      0.02010763	     -0.00438700	    -21.31546456	    -39.23825470	     52.85792188	     -0.03789364	     -0.03101964	     -0.01862499	     77.89071867	     39.82911518	     15.07588364	    -59.23368193	    -15.27566237	    -43.33653898	     51.99460694	     -0.02159158	     -0.03098455	      0.01487760	     87.30353838	     35.39538729	     15.13554394	    -44.19276125	     16.55980059	      0.65863190	     -1.55585747	      0.01176795	      0.01566611	      0.00275551
     18.70000000	      4.60431188	      1.00793230	     -2.47339146	      0.34277330	      0.95871968	     -0.14421258	     -4.78666015	     -9.08904355	    -13.09743080	      2.34902338	      0.04099819	      3.99265934	     15.82173349	      1.96521071	     -4.10593621	     -5.07610300	    -18.30964171	      2.23295535	      0.03897242	      1.08630532	     10.40568297	      2.88781088	     -2.14621636	     -2.73584386	      4.90961840	      0.07465778	      0.02042804	     -0.00445335	    -21.27292747	    -39.23188855	     52.82397027	     -0.03761958	     -0.03108417	     -0.01965110	     77.90759214	     39.82742033	     15.07680097	    -59.23035233	    -15.26480328	    -43.32358065	     51.96730973	     -0.02214669	     -0.03164890	      0.01497281	     87.30345157	     35.39400425	     15.13781360	    -44.19337471	     16.57694979	      0.66710190	     -1.55455561	      0.01075693	      0.01553111	      0.00279480
     18.71000000	      4.60474724	      1.01205103	     -2.47192081	      0.34302222	      0.95867017	     -0.14383600	     -4.78833480	     -9.08954278	    -13.09755652	      2.34769346	      0.04097498	      3.99287515	     15.82229410	      1.96526443	     -4.10696471	     -5.07571164	    -18.30933594	      2.23310608	      0.03897505	      1.08641177	     10.40583338	      2.88783006	     -2.14443463	     -2.72974004	      4.91093070	      0.07480275	      0.02041060	     -0.00421631	    -21.27146196	    -39.23314159	     52.82238183	     -0.03762306	     -0.03109019	     -0.01960170	     77.90778177	     39.82726337	     15.07682992	    -59.23023064	    -15.26444558	    -43.32261986	     51.96636396	     -0.02214760	     -0.03166676	      0.01501369	     87.30348400	     35.39395947	     15.13792128	    -44.19336158	     16.57738198	      0.66763120	     -1.55448986	      0.01075973	      0.01552244	      0.00281514
